<?xml version="1.0" standalone="no"?>
<!DOCTYPE svg PUBLIC "-//W3C//DTD SVG 20010904//EN"
 "http://www.w3.org/TR/2001/REC-SVG-20010904/DTD/svg10.dtd">
<svg version="1.0" xmlns="http://www.w3.org/2000/svg"
 width="256.000000pt" height="256.000000pt" viewBox="0 0 256.000000 256.000000"
 preserveAspectRatio="xMidYMid meet">
<metadata>
Created by potrace 1.11, written by Peter Selinger 2001-2013
</metadata>
<g transform="translate(0.000000,256.000000) scale(0.100000,-0.100000)"
fill="#000000" stroke="none">
<path d="M1237 2373 c-1 0 -31 -4 -67 -7 -70 -7 -115 -13 -115 -16 0 -1 -7 -3
-16 -5 -30 -5 -129 -35 -157 -47 -15 -6 -29 -12 -32 -13 -8 -2 -143 -74 -164
-88 -26 -16 -43 -29 -61 -45 -8 -7 -15 -11 -15 -8 0 11 -166 -158 -196 -199
-16 -22 -35 -46 -41 -53 -7 -7 -13 -20 -13 -28 0 -8 -4 -14 -8 -14 -4 0 -20
-24 -34 -52 -98 -196 -130 -331 -129 -533 1 -82 7 -170 12 -170 1 0 3 -9 5
-20 8 -54 12 -71 17 -85 3 -8 15 -44 27 -80 12 -36 26 -69 31 -74 5 -6 9 -18
9 -28 0 -10 6 -18 13 -18 8 0 7 -4 -3 -10 -13 -8 -12 -10 3 -10 10 0 15 -4 12
-10 -3 -5 -1 -10 6 -10 8 0 6 -6 -4 -18 -14 -15 -15 -19 -2 -19 8 0 12 4 9 9
-3 4 -1 8 3 8 5 0 14 -9 20 -19 10 -15 10 -21 0 -24 -7 -3 -4 -6 6 -6 9 -1 17
-8 17 -16 0 -8 5 -15 10 -15 6 0 10 -6 10 -14 0 -8 7 -17 16 -20 10 -4 14 -12
10 -23 -4 -10 -4 -14 0 -11 8 8 34 -16 34 -31 0 -6 5 -10 12 -9 6 2 17 -7 23
-19 7 -13 15 -20 20 -15 4 4 5 -1 2 -10 -3 -10 -3 -17 1 -15 8 2 24 -10 67
-51 13 -12 28 -22 32 -22 4 0 16 -7 26 -14 15 -12 17 -18 7 -38 -10 -21 -10
-21 3 -5 16 19 47 14 47 -8 0 -7 8 -19 17 -26 11 -10 14 -10 9 -1 -10 18 19
15 34 -3 7 -8 19 -15 26 -15 8 0 14 -6 14 -12 0 -9 4 -8 10 2 6 9 10 10 10 3
0 -11 25 -23 58 -29 7 -1 24 -10 38 -19 14 -9 28 -14 31 -11 9 9 42 -13 39
-27 -1 -6 -1 -9 1 -4 3 4 19 7 36 7 16 0 27 -3 24 -7 -4 -3 1 -12 11 -19 12
-9 19 -9 24 -1 3 6 14 12 23 13 12 2 13 -1 5 -10 -7 -10 -6 -17 7 -27 17 -13
17 -13 3 5 -14 18 -13 19 3 13 11 -4 16 -3 12 3 -12 20 24 10 38 -10 13 -18
15 -19 21 -5 3 9 2 13 -4 10 -6 -3 -10 -1 -10 4 0 16 16 13 34 -5 15 -14 16
-14 16 3 1 15 4 13 16 -7 8 -14 13 -18 11 -9 -4 12 2 16 24 17 20 0 27 -3 22
-11 -4 -7 5 -4 21 6 28 19 28 19 21 -3 -7 -20 -6 -21 13 -4 22 19 72 28 72 13
0 -5 5 -9 11 -9 5 0 7 5 3 12 -5 8 0 9 14 6 12 -4 22 -2 22 3 0 4 7 6 15 3 9
-4 15 0 15 7 0 11 3 11 11 -1 8 -11 12 -12 16 -2 2 6 15 12 28 12 13 0 27 5
30 10 4 6 12 10 18 9 27 -3 38 2 31 13 -5 9 -3 9 9 -1 9 -7 14 -18 10 -24 -3
-6 -1 -7 5 -3 6 4 8 14 5 23 -4 11 -3 14 5 9 7 -4 12 -2 12 3 0 6 5 11 11 11
5 0 8 -4 4 -9 -3 -5 -1 -13 5 -16 6 -4 9 -1 8 7 -2 7 2 12 9 11 7 -2 10 4 7
12 -5 11 -2 13 10 9 10 -4 18 0 22 10 3 9 10 16 16 16 5 0 6 -4 3 -10 -3 -6 1
-7 9 -4 9 3 13 11 9 17 -4 6 2 8 15 5 12 -4 19 -2 16 3 -3 5 3 12 13 16 10 3
26 15 37 25 10 11 24 17 32 14 7 -3 16 0 20 6 5 7 2 8 -7 4 -8 -4 -6 -1 4 8
11 8 26 12 35 8 15 -5 16 -4 2 13 -14 17 -13 18 2 12 10 -3 17 -3 17 1 -3 19
2 23 16 12 13 -11 14 -10 10 2 -7 18 20 42 36 32 8 -5 9 -3 4 5 -9 15 34 64
51 57 8 -3 10 3 6 16 -3 14 -1 19 6 14 7 -4 12 -2 12 4 0 17 26 40 35 32 5 -4
5 -1 1 6 -5 8 -1 21 10 32 29 29 37 41 64 92 14 27 29 48 33 48 5 0 6 4 2 9
-3 5 1 16 9 24 8 8 13 17 10 20 -4 3 -2 12 2 19 5 7 9 15 10 18 6 26 27 69 33
66 4 -3 6 11 5 31 0 19 5 40 11 46 6 6 9 21 7 34 -2 13 0 23 4 23 10 0 10 2
17 170 4 116 0 183 -18 270 -4 19 -8 43 -9 53 0 9 -5 17 -10 17 -5 0 -7 3 -4
6 3 3 -4 32 -17 64 -13 32 -20 61 -17 64 3 3 0 6 -6 6 -7 0 -11 3 -10 8 3 11
-42 100 -58 113 -7 6 -12 15 -9 18 5 9 -115 163 -156 201 -25 23 -98 88 -126
110 -7 6 -15 10 -18 10 -3 0 -15 8 -26 18 -19 18 -197 112 -211 112 -4 0 -19
5 -35 12 -15 6 -32 12 -38 13 -5 2 -28 7 -50 13 -50 14 -86 20 -155 28 -52 6
-160 11 -163 7z m68 -1093 c0 -18 -6 -26 -21 -28 -26 -4 -40 24 -23 45 18 21
44 11 44 -17z m-235 -1080 c0 -5 -5 -10 -11 -10 -5 0 -7 5 -4 10 3 6 8 10 11
10 2 0 4 -4 4 -10z"/>
<path d="M796 258 c3 -5 10 -6 15 -3 13 9 11 12 -6 12 -8 0 -12 -4 -9 -9z"/>
<path d="M1759 253 c-12 -16 -12 -17 2 -6 9 7 20 9 24 5 5 -4 5 -1 1 6 -9 16
-11 15 -27 -5z"/>
<path d="M833 245 c0 -8 4 -12 9 -9 5 3 6 10 3 15 -9 13 -12 11 -12 -6z"/>
<path d="M861 244 c0 -11 3 -14 6 -6 3 7 2 16 -1 19 -3 4 -6 -2 -5 -13z"/>
<path d="M935 220 c-3 -5 -1 -10 4 -10 6 0 11 5 11 10 0 6 -2 10 -4 10 -3 0
-8 -4 -11 -10z"/>
<path d="M1596 207 c3 -10 9 -15 12 -12 3 3 0 11 -7 18 -10 9 -11 8 -5 -6z"/>
<path d="M1370 159 c0 -5 5 -7 10 -4 6 3 10 8 10 11 0 2 -4 4 -10 4 -5 0 -10
-5 -10 -11z"/>
</g>
</svg>
